<svg xmlns="http://www.w3.org/2000/svg" id="canvas" viewBox="323.665 353.642 1152.032 209.911"><path d="M 328.68,457.55 C 328.36 460.79, 330.96 465.15, 332.76 472.28 C 334.56 479.40, 335.61 484.41, 337.68 493.16 C 339.76 501.91, 341.18 507.76, 343.14 516.01 C 345.09 524.27, 346.03 528.01, 347.44 534.44 C 348.86 540.87, 349.41 543.54, 350.21 548.14 C 351.01 552.74, 350.20 555.05, 351.44 557.43 C 352.68 559.80, 354.43 560.20, 356.42 560.01 C 358.40 559.82, 360.85 558.84, 361.36 556.48 C 361.87 554.12, 360.43 552.82, 358.96 548.19 C 357.49 543.56, 355.98 540.43, 354.01 533.35 C 352.05 526.27, 350.97 521.67, 349.13 512.78 C 347.28 503.90, 346.40 498.62, 344.77 488.92 C 343.14 479.21, 342.34 473.91, 340.97 464.25 C 339.60 454.60, 338.95 449.70, 337.92 440.63 C 336.88 431.57, 336.37 427.07, 335.78 418.92 C 335.18 410.77, 334.88 406.74, 334.92 399.87 C 334.96 392.99, 335.12 389.72, 335.98 384.54 C 336.83 379.36, 337.74 377.05, 339.20 373.96 C 340.66 370.88, 341.70 370.26, 343.29 369.11 C 344.87 367.96, 344.83 367.83, 347.14 368.22 C 349.44 368.61, 351.09 368.70, 354.82 371.06 C 358.56 373.43, 361.16 375.28, 365.81 380.05 C 370.45 384.82, 373.10 388.06, 378.06 394.92 C 383.02 401.79, 385.65 406.06, 390.59 414.38 C 395.52 422.71, 398.05 427.49, 402.73 436.53 C 407.42 445.57, 409.70 450.50, 414.01 459.59 C 418.32 468.68, 420.44 473.42, 424.26 481.97 C 428.09 490.52, 429.92 494.78, 433.11 502.32 C 436.31 509.86, 437.84 513.42, 440.22 519.68 C 442.60 525.93, 443.67 528.81, 445.02 533.61 C 446.36 538.41, 446.01 541.06, 446.94 543.69 C 447.86 546.31, 448.75 546.46, 449.65 546.75 C 450.54 547.03, 451.26 545.65, 451.39 545.10 C 451.53 544.55, 451.16 543.19, 450.33 544.01 C 449.51 544.83, 447.21 547.87, 447.26 549.22 C 447.31 550.56, 448.94 551.05, 450.59 550.72 C 452.25 550.39, 454.35 549.52, 455.56 547.56 C 456.76 545.60, 457.37 544.22, 456.60 540.93 C 455.83 537.63, 453.96 535.76, 451.72 531.08 C 449.48 526.39, 448.24 523.63, 445.40 517.50 C 442.56 511.36, 440.94 507.85, 437.51 500.38 C 434.09 492.91, 432.19 488.68, 428.25 480.16 C 424.31 471.64, 422.15 466.90, 417.82 457.78 C 413.48 448.67, 411.19 443.72, 406.56 434.57 C 401.92 425.42, 399.44 420.59, 394.64 412.04 C 389.84 403.50, 387.32 399.14, 382.56 391.84 C 377.79 384.54, 375.41 381.08, 370.82 375.55 C 366.23 370.03, 364.07 367.57, 359.60 364.22 C 355.12 360.86, 352.82 359.32, 348.46 358.78 C 344.09 358.23, 341.12 359.08, 337.77 361.49 C 334.43 363.91, 333.41 366.42, 331.75 370.87 C 330.08 375.32, 329.91 377.94, 329.45 383.76 C 328.98 389.58, 329.12 392.86, 329.42 399.97 C 329.72 407.09, 330.15 411.10, 330.96 419.33 C 331.77 427.57, 332.35 432.06, 333.48 441.16 C 334.61 450.27, 335.27 455.17, 336.62 464.86 C 337.96 474.56, 338.74 479.87, 340.19 489.64 C 341.63 499.42, 342.46 504.70, 343.84 513.74 C 345.22 522.77, 345.98 527.45, 347.09 534.82 C 348.20 542.19, 348.46 545.70, 349.39 550.61 C 350.33 555.51, 350.01 557.51, 351.77 559.34 C 353.52 561.16, 356.31 560.63, 358.17 559.71 C 360.02 558.79, 361.23 557.44, 361.06 554.75 C 360.90 552.06, 358.91 550.59, 357.32 546.25 C 355.74 541.90, 354.91 539.32, 353.14 533.01 C 351.37 526.71, 350.51 522.94, 348.47 514.72 C 346.43 506.50, 345.03 500.66, 342.94 491.91 C 340.85 483.16, 339.72 478.15, 338.01 470.99 C 336.30 463.82, 336.24 458.76, 334.38 456.07 C 332.51 453.38, 329.01 454.31, 328.68 457.55" style="stroke: black; fill: black;"/><path d="M 328.52,499.75 C 329.87 501.01, 330.62 501.40, 333.56 501.05 C 336.49 500.69, 337.98 499.20, 343.18 497.98 C 348.37 496.75, 352.02 495.93, 359.53 494.94 C 367.05 493.95, 371.99 493.62, 380.76 493.02 C 389.52 492.42, 394.52 492.16, 403.36 491.94 C 412.20 491.72, 416.91 491.67, 424.96 491.93 C 433.02 492.20, 436.96 492.53, 443.64 493.27 C 450.32 494.00, 453.35 494.66, 458.36 495.62 C 463.37 496.58, 465.42 497.71, 468.69 498.08 C 471.96 498.45, 473.31 498.39, 474.71 497.49 C 476.11 496.59, 476.55 495.04, 475.68 493.58 C 474.81 492.12, 473.61 491.17, 470.34 490.18 C 467.08 489.19, 464.62 489.16, 459.37 488.63 C 454.13 488.11, 450.96 487.92, 444.10 487.56 C 437.24 487.20, 433.26 486.94, 425.09 486.81 C 416.92 486.68, 412.18 486.77, 403.25 486.91 C 394.33 487.06, 389.35 487.27, 380.48 487.54 C 371.62 487.81, 366.67 487.91, 358.94 488.27 C 351.22 488.63, 347.47 488.92, 341.87 489.33 C 336.27 489.74, 333.97 489.23, 330.95 490.32 C 327.94 491.40, 327.29 492.88, 326.80 494.77 C 326.32 496.65, 327.17 498.50, 328.52 499.75" style="stroke: black; fill: black;"/><path d="M 542.05,529.32 C 543.23 530.87, 543.64 531.42, 544.13 532.39 C 544.62 533.36, 544.61 533.77, 544.48 534.17 C 544.34 534.57, 543.87 534.61, 543.46 534.39 C 543.05 534.17, 542.34 534.08, 542.42 533.06 C 542.50 532.05, 543.10 531.28, 543.86 529.33 C 544.62 527.37, 545.86 525.39, 546.22 523.28 C 546.58 521.17, 546.49 519.98, 545.66 518.76 C 544.83 517.55, 543.48 517.33, 542.07 517.19 C 540.66 517.05, 539.61 517.35, 538.62 518.06 C 537.63 518.78, 537.19 519.44, 537.11 520.75 C 537.03 522.06, 537.22 522.91, 538.20 524.63 C 539.19 526.34, 540.86 527.77, 542.05 529.32" style="stroke: black; fill: black;"/><path d="M 808.50,387.14 C 806.78 387.78, 805.96 388.47, 804.74 391.99 C 803.52 395.51, 803.63 398.07, 802.42 404.73 C 801.22 411.40, 800.44 416.16, 798.74 425.31 C 797.03 434.45, 795.89 440.26, 793.88 450.47 C 791.88 460.67, 790.71 466.50, 788.71 476.33 C 786.71 486.16, 785.61 491.21, 783.89 499.62 C 782.18 508.02, 781.48 511.96, 780.13 518.35 C 778.77 524.74, 777.66 527.57, 777.12 531.56 C 776.57 535.55, 776.34 536.93, 777.39 538.32 C 778.45 539.71, 781.36 540.14, 782.39 538.50 C 783.41 536.86, 782.70 535.49, 782.51 530.10 C 782.32 524.72, 781.47 520.67, 781.42 511.57 C 781.38 502.47, 781.43 496.21, 782.29 484.63 C 783.15 473.04, 784.02 465.82, 785.70 453.65 C 787.39 441.48, 788.59 434.84, 790.73 423.78 C 792.87 412.72, 794.13 407.26, 796.40 398.34 C 798.67 389.43, 799.87 385.41, 802.07 379.20 C 804.27 372.99, 805.83 370.51, 807.41 367.29 C 808.98 364.07, 809.23 363.49, 809.92 363.09 C 810.62 362.69, 809.42 362.93, 810.87 365.31 C 812.32 367.68, 814.26 369.47, 817.18 374.95 C 820.10 380.44, 821.98 384.65, 825.46 392.74 C 828.94 400.82, 830.91 406.02, 834.59 415.39 C 838.26 424.75, 840.20 430.09, 843.84 439.56 C 847.47 449.02, 849.34 453.97, 852.76 462.70 C 856.18 471.44, 857.95 475.70, 860.93 483.23 C 863.91 490.77, 865.36 494.30, 867.67 500.38 C 869.98 506.46, 871.09 509.22, 872.46 513.64 C 873.84 518.06, 873.54 520.17, 874.53 522.47 C 875.51 524.78, 876.26 524.75, 877.39 525.16 C 878.52 525.57, 878.86 525.24, 880.19 524.51 C 881.51 523.78, 883.41 522.34, 884.02 521.51 C 884.63 520.68, 885.28 519.56, 883.23 520.38 C 881.17 521.20, 875.41 524.11, 873.73 525.61 C 872.05 527.11, 873.51 527.70, 874.81 527.88 C 876.11 528.05, 878.54 527.23, 880.24 526.49 C 881.94 525.75, 882.49 525.67, 883.30 524.18 C 884.12 522.68, 885.09 521.71, 884.31 519.02 C 883.53 516.32, 881.67 514.88, 879.40 510.70 C 877.13 506.52, 875.77 503.98, 872.97 498.11 C 870.18 492.25, 868.64 488.78, 865.42 481.37 C 862.20 473.96, 860.37 469.74, 856.87 461.07 C 853.37 452.40, 851.48 447.48, 847.92 438.00 C 844.35 428.53, 842.45 423.19, 839.03 413.71 C 835.61 404.24, 833.88 398.99, 830.82 390.61 C 827.77 382.22, 826.45 377.99, 823.76 371.79 C 821.08 365.60, 820.58 362.59, 817.41 359.64 C 814.25 356.69, 811.19 356.14, 807.94 357.03 C 804.69 357.92, 803.34 359.98, 801.16 364.10 C 798.98 368.23, 798.84 371.00, 797.07 377.65 C 795.30 384.31, 794.32 388.29, 792.31 397.37 C 790.30 406.45, 789.09 411.92, 787.01 423.07 C 784.93 434.22, 783.74 440.88, 781.92 453.11 C 780.10 465.34, 779.19 472.57, 777.92 484.22 C 776.64 495.87, 776.26 502.14, 775.54 511.35 C 774.83 520.57, 774.30 524.62, 774.35 530.28 C 774.40 535.94, 774.15 537.74, 775.78 539.64 C 777.42 541.54, 780.68 541.17, 782.53 539.78 C 784.37 538.40, 784.35 536.83, 785.00 532.72 C 785.65 528.62, 785.05 525.70, 785.76 519.25 C 786.47 512.81, 787.07 508.90, 788.53 500.49 C 789.99 492.08, 791.06 487.02, 793.04 477.21 C 795.03 467.39, 796.23 461.56, 798.46 451.42 C 800.70 441.28, 802.01 435.49, 804.22 426.49 C 806.43 417.48, 807.64 412.80, 809.50 406.39 C 811.37 399.99, 812.78 397.99, 813.55 394.47 C 814.31 390.94, 814.35 390.24, 813.34 388.77 C 812.33 387.31, 810.22 386.50, 808.50 387.14" style="stroke: black; fill: black;"/><path d="M 779.82,480.41 C 781.11 481.82, 781.93 482.56, 784.71 482.36 C 787.50 482.17, 788.96 480.71, 793.75 479.45 C 798.54 478.18, 801.84 477.34, 808.66 476.03 C 815.48 474.71, 819.93 474.15, 827.87 472.85 C 835.81 471.56, 840.32 470.86, 848.36 469.54 C 856.40 468.22, 860.65 467.49, 868.07 466.26 C 875.49 465.03, 879.20 464.43, 885.47 463.38 C 891.74 462.33, 894.76 461.80, 899.42 461.03 C 904.07 460.26, 906.44 460.16, 908.74 459.54 C 911.04 458.92, 910.85 457.63, 910.93 457.95 C 911.01 458.27, 909.26 458.91, 909.15 461.14 C 909.04 463.38, 909.62 465.25, 910.37 469.11 C 911.12 472.97, 911.45 475.87, 912.91 480.46 C 914.37 485.06, 915.21 487.93, 917.69 492.08 C 920.16 496.23, 921.70 498.35, 925.28 501.22 C 928.85 504.10, 931.14 505.26, 935.55 506.47 C 939.95 507.67, 942.58 507.78, 947.30 507.24 C 952.02 506.70, 954.58 505.82, 959.15 503.77 C 963.72 501.72, 966.02 500.19, 970.15 496.99 C 974.27 493.79, 976.30 491.60, 979.77 487.80 C 983.24 483.99, 985.44 481.23, 987.50 477.96 C 989.56 474.68, 990.11 472.85, 990.08 471.41 C 990.05 469.98, 987.92 469.73, 987.35 470.79 C 986.78 471.85, 986.27 473.59, 987.22 476.73 C 988.18 479.88, 989.57 482.51, 992.11 486.53 C 994.66 490.54, 996.44 493.12, 999.95 496.80 C 1003.47 500.48, 1005.53 502.32, 1009.68 504.94 C 1013.82 507.55, 1016.13 508.54, 1020.68 509.89 C 1025.23 511.25, 1027.72 511.70, 1032.44 511.71 C 1037.16 511.73, 1039.79 511.49, 1044.29 509.97 C 1048.79 508.45, 1051.12 507.27, 1054.96 504.12 C 1058.80 500.97, 1060.51 498.88, 1063.48 494.22 C 1066.45 489.55, 1067.71 486.75, 1069.82 480.78 C 1071.92 474.81, 1072.74 471.28, 1074.01 464.37 C 1075.29 457.45, 1075.65 453.33, 1076.18 446.21 C 1076.72 439.09, 1076.73 435.12, 1076.68 428.79 C 1076.63 422.45, 1076.91 418.63, 1075.92 414.54 C 1074.93 410.45, 1073.62 408.69, 1071.75 408.34 C 1069.87 407.99, 1066.89 409.68, 1066.55 412.79 C 1066.22 415.89, 1068.12 418.38, 1070.07 423.86 C 1072.03 429.34, 1073.58 433.41, 1076.35 440.20 C 1079.11 447.00, 1080.86 451.12, 1083.91 457.83 C 1086.96 464.54, 1088.74 468.03, 1091.57 473.75 C 1094.41 479.47, 1095.80 482.16, 1098.07 486.42 C 1100.33 490.67, 1100.58 493.16, 1102.91 495.04 C 1105.24 496.92, 1107.40 496.85, 1109.72 495.83 C 1112.04 494.81, 1113.44 492.67, 1114.49 489.93 C 1115.55 487.19, 1116.37 484.36, 1114.99 482.14 C 1113.61 479.91, 1110.68 478.58, 1107.58 478.80 C 1104.48 479.01, 1101.39 480.76, 1099.50 483.20 C 1097.62 485.63, 1097.22 488.80, 1098.15 490.98 C 1099.09 493.16, 1101.81 493.63, 1104.16 494.11 C 1106.52 494.58, 1108.58 494.47, 1109.93 493.36 C 1111.27 492.26, 1111.89 490.84, 1110.87 488.59 C 1109.86 486.34, 1107.54 485.72, 1104.85 482.13 C 1102.17 478.55, 1100.46 476.04, 1097.45 470.66 C 1094.45 465.28, 1092.64 461.84, 1089.83 455.23 C 1087.01 448.62, 1085.62 444.42, 1083.37 437.61 C 1081.11 430.80, 1080.03 426.67, 1078.54 421.20 C 1077.06 415.72, 1077.80 412.77, 1075.94 410.24 C 1074.09 407.72, 1070.98 407.51, 1069.25 408.59 C 1067.52 409.67, 1067.23 411.54, 1067.29 415.65 C 1067.36 419.75, 1069.09 423.07, 1069.58 429.10 C 1070.07 435.12, 1070.16 438.97, 1069.74 445.77 C 1069.33 452.57, 1068.84 456.60, 1067.50 463.10 C 1066.15 469.59, 1065.18 472.90, 1063.03 478.22 C 1060.89 483.54, 1059.48 485.92, 1056.77 489.69 C 1054.05 493.47, 1052.54 494.84, 1049.47 497.09 C 1046.40 499.35, 1044.80 499.95, 1041.40 500.97 C 1038.00 501.99, 1036.08 502.20, 1032.46 502.19 C 1028.84 502.19, 1026.83 501.96, 1023.29 500.95 C 1019.75 499.94, 1017.91 499.28, 1014.76 497.15 C 1011.60 495.01, 1009.99 493.53, 1007.54 490.27 C 1005.08 487.02, 1004.20 484.66, 1002.47 480.86 C 1000.73 477.05, 1000.85 474.37, 998.86 471.26 C 996.87 468.15, 995.48 466.51, 992.52 465.31 C 989.55 464.12, 986.87 463.96, 984.04 465.28 C 981.21 466.61, 980.66 468.63, 978.37 471.93 C 976.09 475.23, 975.37 478.20, 972.63 481.79 C 969.88 485.38, 968.08 487.22, 964.64 489.90 C 961.20 492.57, 959.10 493.64, 955.42 495.16 C 951.74 496.68, 949.70 497.14, 946.24 497.49 C 942.78 497.84, 941.07 497.69, 938.13 496.90 C 935.19 496.12, 933.86 495.52, 931.54 493.58 C 929.22 491.63, 928.14 490.36, 926.55 487.17 C 924.96 483.99, 924.39 481.64, 923.60 477.65 C 922.81 473.67, 923.03 471.17, 922.59 467.24 C 922.14 463.30, 922.88 461.09, 921.39 457.97 C 919.89 454.86, 917.96 453.31, 915.10 451.67 C 912.24 450.04, 910.58 449.42, 907.08 449.79 C 903.57 450.17, 902.15 452.06, 897.58 453.55 C 893.01 455.05, 890.33 455.82, 884.24 457.27 C 878.14 458.71, 874.45 459.40, 867.10 460.77 C 859.76 462.14, 855.51 462.88, 847.50 464.11 C 839.48 465.34, 835.01 465.98, 827.03 466.92 C 819.06 467.85, 814.61 468.15, 807.64 468.78 C 800.67 469.41, 797.29 469.67, 792.18 470.06 C 787.08 470.45, 784.88 469.65, 782.10 470.71 C 779.31 471.76, 778.71 473.40, 778.26 475.35 C 777.80 477.29, 778.53 479.01, 779.82 480.41" style="stroke: black; fill: black;"/><path d="M 1058.35,465.83 C 1059.36 467.59, 1060.38 468.89, 1063.18 469.20 C 1065.99 469.51, 1067.83 468.33, 1072.36 467.36 C 1076.89 466.39, 1079.92 465.77, 1085.84 464.35 C 1091.76 462.94, 1095.47 462.17, 1101.96 460.30 C 1108.46 458.43, 1112.05 457.33, 1118.32 455.01 C 1124.59 452.69, 1127.84 451.40, 1133.31 448.71 C 1138.78 446.03, 1141.34 444.61, 1145.69 441.58 C 1150.04 438.56, 1152.00 437.00, 1155.04 433.60 C 1158.09 430.20, 1159.34 428.28, 1160.91 424.60 C 1162.48 420.92, 1163.13 418.61, 1162.89 415.20 C 1162.64 411.78, 1161.91 409.58, 1159.71 407.54 C 1157.50 405.51, 1154.97 404.65, 1151.87 405.02 C 1148.78 405.40, 1145.92 406.60, 1144.23 409.41 C 1142.55 412.22, 1143.02 414.65, 1143.45 419.09 C 1143.89 423.53, 1144.86 426.28, 1146.39 431.59 C 1147.92 436.90, 1148.96 440.11, 1151.09 445.64 C 1153.23 451.17, 1154.51 454.14, 1157.05 459.24 C 1159.59 464.33, 1161.03 466.81, 1163.79 471.11 C 1166.55 475.41, 1167.94 477.39, 1170.86 480.73 C 1173.78 484.08, 1175.05 485.79, 1178.39 487.84 C 1181.73 489.88, 1183.81 490.68, 1187.56 490.95 C 1191.31 491.22, 1193.69 490.77, 1197.15 489.18 C 1200.61 487.59, 1201.95 485.79, 1204.86 482.99 C 1207.78 480.18, 1209.03 478.22, 1211.72 475.14 C 1214.40 472.07, 1215.90 470.12, 1218.28 467.61 C 1220.67 465.11, 1222.23 463.99, 1223.64 462.61 C 1225.05 461.24, 1224.63 460.53, 1225.32 460.72 C 1226.00 460.91, 1225.73 461.99, 1227.06 463.56 C 1228.40 465.13, 1229.60 466.10, 1231.97 468.58 C 1234.34 471.06, 1235.84 472.98, 1238.92 475.97 C 1242.01 478.96, 1243.77 480.79, 1247.38 483.52 C 1250.99 486.25, 1252.93 487.54, 1256.98 489.63 C 1261.02 491.71, 1263.26 492.68, 1267.60 493.93 C 1271.95 495.19, 1274.24 495.62, 1278.72 495.91 C 1283.19 496.20, 1285.55 496.14, 1289.97 495.39 C 1294.38 494.64, 1296.71 494.01, 1300.78 492.15 C 1304.84 490.29, 1306.89 488.94, 1310.29 486.08 C 1313.69 483.23, 1315.26 481.41, 1317.79 477.85 C 1320.32 474.30, 1321.46 472.23, 1322.92 468.32 C 1324.39 464.40, 1325.30 462.15, 1325.12 458.29 C 1324.95 454.42, 1324.17 452.09, 1322.04 448.99 C 1319.92 445.88, 1318.07 444.16, 1314.50 442.76 C 1310.93 441.36, 1308.21 441.00, 1304.18 441.97 C 1300.14 442.94, 1297.94 444.65, 1294.33 447.62 C 1290.71 450.60, 1288.88 452.71, 1286.11 456.84 C 1283.34 460.96, 1281.82 463.52, 1280.50 468.25 C 1279.17 472.98, 1278.67 475.85, 1279.50 480.48 C 1280.32 485.11, 1281.60 487.76, 1284.62 491.41 C 1287.65 495.06, 1290.10 496.67, 1294.63 498.74 C 1299.17 500.81, 1302.10 501.21, 1307.31 501.77 C 1312.51 502.33, 1315.48 502.19, 1320.65 501.52 C 1325.83 500.86, 1328.59 500.25, 1333.17 498.44 C 1337.76 496.63, 1340.12 495.40, 1343.59 492.47 C 1347.06 489.55, 1348.77 487.73, 1350.51 483.84 C 1352.25 479.94, 1352.63 477.26, 1352.29 473.00 C 1351.95 468.75, 1350.89 466.33, 1348.80 462.57 C 1346.71 458.80, 1344.91 457.07, 1341.86 454.17 C 1338.81 451.26, 1336.98 449.18, 1333.55 448.04 C 1330.13 446.90, 1327.21 447.53, 1324.73 448.47 C 1322.26 449.42, 1321.61 451.23, 1321.17 452.77 C 1320.74 454.30, 1321.93 455.05, 1322.57 456.13 C 1323.21 457.22, 1323.35 457.13, 1324.38 458.20 C 1325.41 459.27, 1325.88 460.35, 1327.73 461.49 C 1329.59 462.64, 1331.52 462.47, 1333.68 463.93 C 1335.84 465.39, 1337.08 466.70, 1338.53 468.78 C 1339.98 470.86, 1340.52 472.15, 1340.93 474.33 C 1341.34 476.51, 1341.37 477.56, 1340.59 479.68 C 1339.81 481.81, 1339.22 482.94, 1337.03 484.96 C 1334.84 486.98, 1333.14 488.28, 1329.63 489.78 C 1326.12 491.29, 1323.74 491.94, 1319.48 492.50 C 1315.22 493.06, 1312.51 493.06, 1308.33 492.57 C 1304.16 492.08, 1301.84 491.53, 1298.60 490.05 C 1295.37 488.57, 1294.01 487.40, 1292.15 485.17 C 1290.29 482.93, 1289.69 481.66, 1289.31 478.88 C 1288.93 476.10, 1289.14 474.41, 1290.25 471.26 C 1291.36 468.11, 1292.62 465.98, 1294.86 463.15 C 1297.11 460.32, 1298.93 458.78, 1301.49 457.10 C 1304.04 455.41, 1305.77 455.35, 1307.64 454.71 C 1309.51 454.08, 1309.97 453.89, 1310.83 453.94 C 1311.69 454.00, 1311.67 454.04, 1311.94 454.97 C 1312.21 455.91, 1312.21 456.68, 1312.18 458.62 C 1312.15 460.56, 1312.49 462.03, 1311.81 464.66 C 1311.12 467.29, 1310.42 469.08, 1308.75 471.79 C 1307.08 474.49, 1305.91 475.97, 1303.45 478.18 C 1300.99 480.39, 1299.49 481.40, 1296.45 482.85 C 1293.40 484.30, 1291.65 484.82, 1288.23 485.43 C 1284.81 486.05, 1282.91 486.12, 1279.33 485.92 C 1275.75 485.72, 1273.88 485.45, 1270.34 484.43 C 1266.79 483.42, 1264.89 482.65, 1261.60 480.86 C 1258.31 479.07, 1256.75 478.01, 1253.87 475.49 C 1251.00 472.98, 1249.71 471.31, 1247.22 468.29 C 1244.74 465.26, 1243.81 463.33, 1241.44 460.36 C 1239.07 457.38, 1238.40 455.40, 1235.37 453.41 C 1232.35 451.41, 1230.05 450.63, 1226.31 450.39 C 1222.56 450.16, 1220.01 450.41, 1216.66 452.24 C 1213.31 454.06, 1212.29 456.48, 1209.54 459.51 C 1206.80 462.54, 1205.54 464.46, 1202.93 467.38 C 1200.32 470.30, 1198.80 471.98, 1196.48 474.10 C 1194.17 476.23, 1193.06 476.92, 1191.36 478.00 C 1189.66 479.08, 1189.50 479.41, 1187.99 479.49 C 1186.47 479.56, 1185.88 479.42, 1183.80 478.37 C 1181.73 477.31, 1180.23 476.59, 1177.60 474.20 C 1174.96 471.82, 1173.32 470.14, 1170.63 466.44 C 1167.94 462.75, 1166.46 460.43, 1164.12 455.72 C 1161.79 451.01, 1160.57 448.13, 1158.95 442.90 C 1157.34 437.68, 1156.64 434.46, 1156.04 429.58 C 1155.45 424.69, 1155.93 421.91, 1155.98 418.49 C 1156.04 415.07, 1156.91 413.93, 1156.31 412.48 C 1155.71 411.04, 1154.18 411.23, 1152.98 411.27 C 1151.78 411.30, 1150.89 411.74, 1150.30 412.67 C 1149.72 413.60, 1150.00 414.20, 1150.05 415.91 C 1150.09 417.63, 1150.94 418.82, 1150.53 421.24 C 1150.13 423.67, 1149.91 425.20, 1148.02 428.04 C 1146.13 430.88, 1144.65 432.53, 1141.08 435.43 C 1137.51 438.33, 1135.18 439.89, 1130.17 442.55 C 1125.16 445.21, 1122.01 446.54, 1116.02 448.71 C 1110.02 450.88, 1106.50 451.94, 1100.17 453.40 C 1093.84 454.85, 1090.19 455.33, 1084.36 456.00 C 1078.53 456.67, 1075.47 456.60, 1071.04 456.75 C 1066.61 456.89, 1064.77 455.99, 1062.19 456.72 C 1059.61 457.46, 1058.92 458.59, 1058.16 460.42 C 1057.39 462.24, 1057.35 464.07, 1058.35 465.83" style="stroke: black; fill: black;"/><path d="M 1376.12,461.60 C 1374.46 462.99, 1373.72 464.51, 1373.57 467.17 C 1373.42 469.82, 1374.34 471.52, 1375.37 474.87 C 1376.41 478.22, 1377.59 480.45, 1378.77 483.92 C 1379.95 487.39, 1379.66 489.86, 1381.28 492.22 C 1382.90 494.58, 1384.59 495.32, 1386.87 495.71 C 1389.14 496.10, 1390.79 495.61, 1392.66 494.18 C 1394.53 492.76, 1396.09 491.13, 1396.21 488.60 C 1396.32 486.07, 1394.70 484.71, 1393.24 481.53 C 1391.78 478.36, 1390.24 476.26, 1388.92 472.74 C 1387.60 469.23, 1387.06 466.99, 1386.66 463.95 C 1386.25 460.91, 1386.34 459.68, 1386.89 457.54 C 1387.44 455.40, 1387.68 454.91, 1389.40 453.24 C 1391.11 451.58, 1392.13 450.69, 1395.45 449.21 C 1398.78 447.73, 1401.14 446.93, 1406.03 445.85 C 1410.92 444.76, 1414.12 444.32, 1419.89 443.79 C 1425.66 443.26, 1428.98 443.14, 1434.89 443.21 C 1440.81 443.28, 1443.98 443.63, 1449.47 444.14 C 1454.95 444.64, 1458.02 445.44, 1462.33 445.75 C 1466.63 446.05, 1469.11 446.70, 1471.00 445.66 C 1472.89 444.62, 1473.29 442.10, 1471.75 440.55 C 1470.22 439.01, 1467.67 438.76, 1463.34 437.94 C 1459.01 437.13, 1455.77 436.88, 1450.10 436.47 C 1444.43 436.06, 1441.13 435.97, 1434.99 435.89 C 1428.84 435.80, 1425.47 435.77, 1419.36 436.05 C 1413.26 436.33, 1409.98 436.48, 1404.47 437.29 C 1398.97 438.09, 1396.30 438.44, 1391.82 440.06 C 1387.34 441.68, 1385.19 442.56, 1382.08 445.39 C 1378.97 448.21, 1377.64 450.31, 1376.28 454.18 C 1374.92 458.06, 1375.18 460.42, 1375.30 464.76 C 1375.42 469.09, 1376.15 471.46, 1376.87 475.85 C 1377.60 480.25, 1377.87 482.95, 1378.93 486.72 C 1379.99 490.50, 1380.12 492.82, 1382.17 494.73 C 1384.22 496.63, 1386.71 496.64, 1389.18 496.24 C 1391.66 495.84, 1393.20 494.73, 1394.55 492.74 C 1395.91 490.76, 1396.42 489.07, 1395.97 486.30 C 1395.52 483.53, 1393.62 482.13, 1392.31 478.89 C 1391.00 475.65, 1390.56 473.21, 1389.41 470.11 C 1388.26 467.01, 1388.08 465.36, 1386.57 463.37 C 1385.07 461.39, 1383.99 460.55, 1381.90 460.20 C 1379.81 459.84, 1377.79 460.21, 1376.12 461.60" style="stroke: black; fill: black;"/></svg>